<svg xmlns="http://www.w3.org/2000/svg" viewBox="0 0 256 256" width="256" height="256">
  <defs>
    <linearGradient id="bg" x1="0%" y1="0%" x2="100%" y2="100%">
      <stop offset="0%" stop-color="#f8fafc"/>
      <stop offset="50%" stop-color="#f1f5f9"/>
      <stop offset="100%" stop-color="#e2e8f0"/>
    </linearGradient>
    <linearGradient id="col1" x1="0%" y1="0%" x2="0%" y2="100%">
      <stop offset="0%" stop-color="#10b981"/>
      <stop offset="100%" stop-color="#059669"/>
    </linearGradient>
    <linearGradient id="col2" x1="0%" y1="0%" x2="0%" y2="100%">
      <stop offset="0%" stop-color="#f59e0b"/>
      <stop offset="100%" stop-color="#d97706"/>
    </linearGradient>
    <linearGradient id="col3" x1="0%" y1="0%" x2="0%" y2="100%">
      <stop offset="0%" stop-color="#ec4899"/>
      <stop offset="100%" stop-color="#db2777"/>
    </linearGradient>
    <linearGradient id="card1" x1="0%" y1="0%" x2="0%" y2="100%">
      <stop offset="0%" stop-color="#d1fae5"/>
      <stop offset="100%" stop-color="#a7f3d0"/>
    </linearGradient>
    <linearGradient id="card2" x1="0%" y1="0%" x2="0%" y2="100%">
      <stop offset="0%" stop-color="#fef3c7"/>
      <stop offset="100%" stop-color="#fde68a"/>
    </linearGradient>
    <linearGradient id="card3" x1="0%" y1="0%" x2="0%" y2="100%">
      <stop offset="0%" stop-color="#fce7f3"/>
      <stop offset="100%" stop-color="#fbcfe8"/>
    </linearGradient>
    <filter id="shadow" x="-10%" y="-10%" width="120%" height="120%">
      <feDropShadow dx="0" dy="2" stdDeviation="3" flood-color="#64748b" flood-opacity="0.15"/>
    </filter>
    <clipPath id="squircle-clip">
      <rect x="4" y="4" width="248" height="248" rx="48" ry="48"/>
    </clipPath>
  </defs>

  <!-- Background squircle -->
  <rect x="4" y="4" width="248" height="248" rx="48" ry="48" fill="url(#bg)"/>
  <!-- Subtle border -->
  <rect x="4" y="4" width="248" height="248" rx="48" ry="48" fill="none" stroke="#94a3b8" stroke-width="1" opacity="0.25"/>

  <g clip-path="url(#squircle-clip)">
    <!-- Subtle grid dots for texture -->
    <g opacity="0.06" fill="#64748b">
      <circle cx="40" cy="40" r="1"/><circle cx="72" cy="40" r="1"/><circle cx="104" cy="40" r="1"/><circle cx="136" cy="40" r="1"/><circle cx="168" cy="40" r="1"/><circle cx="200" cy="40" r="1"/><circle cx="232" cy="40" r="1"/>
      <circle cx="40" cy="72" r="1"/><circle cx="72" cy="72" r="1"/><circle cx="104" cy="72" r="1"/><circle cx="136" cy="72" r="1"/><circle cx="168" cy="72" r="1"/><circle cx="200" cy="72" r="1"/><circle cx="232" cy="72" r="1"/>
      <circle cx="40" cy="104" r="1"/><circle cx="72" cy="104" r="1"/><circle cx="104" cy="104" r="1"/><circle cx="136" cy="104" r="1"/><circle cx="168" cy="104" r="1"/><circle cx="200" cy="104" r="1"/><circle cx="232" cy="104" r="1"/>
      <circle cx="40" cy="136" r="1"/><circle cx="72" cy="136" r="1"/><circle cx="104" cy="136" r="1"/><circle cx="136" cy="136" r="1"/><circle cx="168" cy="136" r="1"/><circle cx="200" cy="136" r="1"/><circle cx="232" cy="136" r="1"/>
      <circle cx="40" cy="168" r="1"/><circle cx="72" cy="168" r="1"/><circle cx="104" cy="168" r="1"/><circle cx="136" cy="168" r="1"/><circle cx="168" cy="168" r="1"/><circle cx="200" cy="168" r="1"/><circle cx="232" cy="168" r="1"/>
      <circle cx="40" cy="200" r="1"/><circle cx="72" cy="200" r="1"/><circle cx="104" cy="200" r="1"/><circle cx="136" cy="200" r="1"/><circle cx="168" cy="200" r="1"/><circle cx="200" cy="200" r="1"/><circle cx="232" cy="200" r="1"/>
    </g>

    <!-- Column 1: To Do (green) -->
    <g filter="url(#shadow)">
      <rect x="28" y="44" width="60" height="172" rx="10" fill="white" opacity="0.7"/>
      <rect x="34" y="50" width="48" height="5" rx="2.5" fill="url(#col1)"/>
      <rect x="34" y="64" width="48" height="28" rx="6" fill="url(#card1)"/>
      <rect x="40" y="72" width="24" height="3" rx="1.5" fill="#059669" opacity="0.4"/>
      <rect x="40" y="78" width="16" height="3" rx="1.5" fill="#059669" opacity="0.25"/>
      <rect x="34" y="98" width="48" height="28" rx="6" fill="url(#card1)" opacity="0.8"/>
      <rect x="40" y="106" width="20" height="3" rx="1.5" fill="#059669" opacity="0.35"/>
      <rect x="40" y="112" width="28" height="3" rx="1.5" fill="#059669" opacity="0.2"/>
      <rect x="34" y="132" width="48" height="28" rx="6" fill="url(#card1)" opacity="0.6"/>
      <rect x="40" y="140" width="30" height="3" rx="1.5" fill="#059669" opacity="0.3"/>
      <rect x="40" y="146" width="18" height="3" rx="1.5" fill="#059669" opacity="0.18"/>
    </g>

    <!-- Column 2: In Progress (amber) -->
    <g filter="url(#shadow)">
      <rect x="98" y="36" width="60" height="184" rx="10" fill="white" opacity="0.7"/>
      <rect x="104" y="42" width="48" height="5" rx="2.5" fill="url(#col2)"/>
      <rect x="104" y="56" width="48" height="32" rx="6" fill="url(#card2)"/>
      <rect x="110" y="64" width="28" height="3" rx="1.5" fill="#d97706" opacity="0.4"/>
      <rect x="110" y="70" width="20" height="3" rx="1.5" fill="#d97706" opacity="0.25"/>
      <rect x="110" y="76" width="14" height="3" rx="1.5" fill="#d97706" opacity="0.18"/>
      <rect x="104" y="94" width="48" height="28" rx="6" fill="url(#card2)" opacity="0.8"/>
      <rect x="110" y="102" width="22" height="3" rx="1.5" fill="#d97706" opacity="0.35"/>
      <rect x="110" y="108" width="32" height="3" rx="1.5" fill="#d97706" opacity="0.2"/>
      <g transform="rotate(-3, 128, 148)">
        <rect x="102" y="130" width="52" height="30" rx="6" fill="url(#card2)" stroke="#d97706" stroke-width="1" stroke-opacity="0.2"/>
        <rect x="108" y="138" width="26" height="3" rx="1.5" fill="#d97706" opacity="0.5"/>
        <rect x="108" y="144" width="18" height="3" rx="1.5" fill="#d97706" opacity="0.3"/>
      </g>
    </g>

    <!-- Column 3: Done (pink) -->
    <g filter="url(#shadow)">
      <rect x="168" y="44" width="60" height="172" rx="10" fill="white" opacity="0.7"/>
      <rect x="174" y="50" width="48" height="5" rx="2.5" fill="url(#col3)"/>
      <rect x="174" y="64" width="48" height="28" rx="6" fill="url(#card3)"/>
      <rect x="180" y="72" width="22" height="3" rx="1.5" fill="#db2777" opacity="0.4"/>
      <rect x="180" y="78" width="30" height="3" rx="1.5" fill="#db2777" opacity="0.25"/>
      <circle cx="211" cy="72" r="5" fill="#db2777" opacity="0.15"/>
      <path d="M208,72 L210,74.5 L214.5,69.5" fill="none" stroke="#db2777" stroke-width="1.5" stroke-linecap="round" stroke-linejoin="round" opacity="0.6"/>
      <rect x="174" y="98" width="48" height="28" rx="6" fill="url(#card3)" opacity="0.8"/>
      <rect x="180" y="106" width="26" height="3" rx="1.5" fill="#db2777" opacity="0.35"/>
      <rect x="180" y="112" width="16" height="3" rx="1.5" fill="#db2777" opacity="0.2"/>
      <circle cx="211" cy="106" r="5" fill="#db2777" opacity="0.12"/>
      <path d="M208,106 L210,108.5 L214.5,103.5" fill="none" stroke="#db2777" stroke-width="1.5" stroke-linecap="round" stroke-linejoin="round" opacity="0.4"/>
    </g>
  </g>
</svg>
