<svg xmlns="http://www.w3.org/2000/svg" viewBox="0 0 24 24" fill="none" stroke="currentColor" stroke-width="1.2" stroke-linecap="round" stroke-linejoin="round">
  <!-- Column 1 (tallest) -->
  <path d="M7,4 L4,5.5 L4,15.5 L7,17 L10,15.5 L10,5.5 Z" />
  <path d="M7,7 L4,5.5 M7,7 L10,5.5 M7,7 L7,17" />
  <!-- Column 2 (medium) -->
  <path d="M12,7.5 L9,9 L9,17 L12,18.5 L15,17 L15,9 Z" />
  <path d="M12,10.5 L9,9 M12,10.5 L15,9 M12,10.5 L12,18.5" />
  <!-- Column 3 (shortest) -->
  <path d="M17,11 L14,12.5 L14,18 L17,19.5 L20,18 L20,12.5 Z" />
  <path d="M17,14 L14,12.5 M17,14 L20,12.5 M17,14 L17,19.5" />
</svg>
