<svg xmlns="http://www.w3.org/2000/svg" viewBox="0 0 24 24">
  <!-- Column 1 (green) -->
  <polygon points="4,5.5 4,15.5 7,17 7,7" fill="#166534" />
  <polygon points="7,7 7,17 10,15.5 10,5.5" fill="#15803d" />
  <polygon points="4,5.5 7,4 10,5.5 7,7" fill="#22c55e" />
  <!-- Column 2 (amber) -->
  <polygon points="9,9 9,17 12,18.5 12,10.5" fill="#854d0e" />
  <polygon points="12,10.5 12,18.5 15,17 15,9" fill="#a16207" />
  <polygon points="9,9 12,7.5 15,9 12,10.5" fill="#ca8a04" />
  <!-- Column 3 (red) -->
  <polygon points="14,12.5 14,18 17,19.5 17,14" fill="#9f1239" />
  <polygon points="17,14 17,19.5 20,18 20,12.5" fill="#be123c" />
  <polygon points="14,12.5 17,11 20,12.5 17,14" fill="#e11d48" />
</svg>
