<svg xmlns="http://www.w3.org/2000/svg" viewBox="0 0 24 24" fill="none">
  <!-- Column 1 (green) -->
  <rect x="2" y="3" width="5.5" height="16" rx="1.2" fill="#64748b" opacity="0.08"/>
  <rect x="2.8" y="3.8" width="3.9" height="0.8" rx="0.4" fill="#059669"/>
  <rect x="2.8" y="5.5" width="3.9" height="2.8" rx="0.8" fill="#059669" opacity="0.6"/>
  <rect x="2.8" y="9" width="3.9" height="2.8" rx="0.8" fill="#059669" opacity="0.4"/>
  <rect x="2.8" y="12.5" width="3.9" height="2.8" rx="0.8" fill="#059669" opacity="0.25"/>
  <!-- Column 2 (amber) -->
  <rect x="9.25" y="2" width="5.5" height="18" rx="1.2" fill="#64748b" opacity="0.08"/>
  <rect x="10.05" y="2.8" width="3.9" height="0.8" rx="0.4" fill="#d97706"/>
  <rect x="10.05" y="4.5" width="3.9" height="3.2" rx="0.8" fill="#d97706" opacity="0.6"/>
  <rect x="10.05" y="8.4" width="3.9" height="2.8" rx="0.8" fill="#d97706" opacity="0.4"/>
  <g transform="rotate(-3, 12, 14)">
    <rect x="9.85" y="12" width="4.3" height="2.8" rx="0.8" fill="#d97706" opacity="0.7" stroke="#d97706" stroke-width="0.3" stroke-opacity="0.3"/>
  </g>
  <!-- Column 3 (pink) -->
  <rect x="16.5" y="3" width="5.5" height="16" rx="1.2" fill="#64748b" opacity="0.08"/>
  <rect x="17.3" y="3.8" width="3.9" height="0.8" rx="0.4" fill="#db2777"/>
  <rect x="17.3" y="5.5" width="3.9" height="2.8" rx="0.8" fill="#db2777" opacity="0.6"/>
  <rect x="17.3" y="9" width="3.9" height="2.8" rx="0.8" fill="#db2777" opacity="0.4"/>
</svg>
